<?xml version="1.0" encoding="UTF-8"?>
<svg xmlns="http://www.w3.org/2000/svg" xmlns:xlink="http://www.w3.org/1999/xlink" width="144" height="117" viewBox="0 0 144 117">
<path fill="none" stroke-width="0.3985" stroke-linecap="butt" stroke-linejoin="miter" stroke="rgb(0%, 0%, 0%)" stroke-opacity="1" stroke-miterlimit="10" d="M 0.00167039 0.00140625 L 141.735354 0.00140625 " transform="matrix(1.00006, 0, 0, -1, 1.095986, 115.185)"/>
<path fill="none" stroke-width="0.3985" stroke-linecap="butt" stroke-linejoin="miter" stroke="rgb(0%, 0%, 0%)" stroke-opacity="1" stroke-miterlimit="10" d="M 0.00167039 28.345156 L 141.735354 28.345156 " transform="matrix(1.00006, 0, 0, -1, 1.095986, 115.185)"/>
<path fill="none" stroke-width="0.3985" stroke-linecap="butt" stroke-linejoin="miter" stroke="rgb(0%, 0%, 0%)" stroke-opacity="1" stroke-miterlimit="10" d="M 0.00167039 56.692812 L 141.735354 56.692812 " transform="matrix(1.00006, 0, 0, -1, 1.095986, 115.185)"/>
<path fill="none" stroke-width="0.3985" stroke-linecap="butt" stroke-linejoin="miter" stroke="rgb(0%, 0%, 0%)" stroke-opacity="1" stroke-miterlimit="10" d="M 0.00167039 85.040469 L 141.735354 85.040469 " transform="matrix(1.00006, 0, 0, -1, 1.095986, 115.185)"/>
<path fill="none" stroke-width="0.3985" stroke-linecap="butt" stroke-linejoin="miter" stroke="rgb(0%, 0%, 0%)" stroke-opacity="1" stroke-miterlimit="10" d="M 0.00167039 113.388125 L 141.735354 113.388125 " transform="matrix(1.00006, 0, 0, -1, 1.095986, 115.185)"/>
<path fill="none" stroke-width="1.19553" stroke-linecap="butt" stroke-linejoin="miter" stroke="rgb(0%, 0%, 0%)" stroke-opacity="1" stroke-miterlimit="10" d="M 26.746159 36.649844 L 44.120117 51.224062 " transform="matrix(1.00006, 0, 0, -1, 1.095986, 115.185)"/>
<path fill="none" stroke-width="1.19553" stroke-linecap="butt" stroke-linejoin="miter" stroke="rgb(0%, 0%, 0%)" stroke-opacity="1" stroke-miterlimit="10" d="M 54.724949 48.360781 L 58.662213 70.692812 " transform="matrix(1.00006, 0, 0, -1, 1.095986, 115.185)"/>
<path fill="none" stroke-width="1.19553" stroke-linecap="butt" stroke-linejoin="miter" stroke="rgb(0%, 0%, 0%)" stroke-opacity="1" stroke-miterlimit="10" d="M 94.85926 25.513125 L 75.219814 36.849062 " transform="matrix(1.00006, 0, 0, -1, 1.095986, 115.185)"/>
<path fill="none" stroke-width="1.19553" stroke-linecap="butt" stroke-linejoin="miter" stroke="rgb(0%, 0%, 0%)" stroke-opacity="1" stroke-miterlimit="10" d="M 116.955591 86.083437 L 95.644369 78.329531 " transform="matrix(1.00006, 0, 0, -1, 1.095986, 115.185)"/>
</svg>
