<svg xmlns="http://www.w3.org/2000/svg" xmlns:xlink="http://www.w3.org/1999/xlink" xmlns:inkscape="http://www.inkscape.org/namespaces/inkscape" version="1.1" width="210" height="62" viewBox="0 0 210 62">
<defs>
<path id="font_1_1" d="M.33399964 .30233766C.33999635 .32835389 .36299134 .42037965 .43299867 .42037965 .43798829 .42037965 .46199037 .42037965 .48298646 .40734864 .45498658 .402359 .43499757 .37734986 .43499757 .35334779 .43499757 .33735658 .44599916 .31835938 .47299195 .31835938 .49499513 .31835938 .5269928 .3363495 .5269928 .37635804 .5269928 .42837525 .46798707 .4423828 .43399049 .4423828 .37599183 .4423828 .34098817 .38935853 .32899476 .36634828 .3039856 .43237306 .25 .4423828 .22099304 .4423828 .116989139 .4423828 .05999756 .3133545 .05999756 .28834535 .05999756 .27833558 .069992069 .27833558 .07199097 .27833558 .07998657 .27833558 .08299255 .28033448 .084991458 .28933717 .11898804 .39535523 .18499756 .42037965 .21899414 .42037965 .23799134 .42037965 .272995 .4113617 .272995 .35334779 .272995 .32235719 .2559967 .25532533 .21899414 .11528015 .20298767 .053268434 .16799927 .011245728 .12399292 .011245728 .117996219 .011245728 .09498596 .011245728 .07398987 .024276734 .09899902 .029266358 .12098694 .05027771 .12098694 .07827759 .12098694 .105270389 .09899902 .11328125 .083999637 .11328125 .053985597 .11328125 .0289917 .08728027 .0289917 .055267335 .0289917 .009246826 .07899475-.0107421879 .12298584-.0107421879 .18899536-.0107421879 .22499085 .059280397 .22799683 .0652771 .23999024 .028274537 .27598573-.0107421879 .33599855-.0107421879 .43899537-.0107421879 .49598695 .118270877 .49598695 .14328003 .49598695 .1532898 .4869995 .1532898 .48399354 .1532898 .47499085 .1532898 .47299195 .14929199 .47099305 .14228821 .43798829 .03527832 .36999513 .011245728 .33799745 .011245728 .29899598 .011245728 .2829895 .043273927 .2829895 .07727051 .2829895 .09927368 .2889862 .121276859 .2999878 .16529846L.33399964 .30233766Z"/>
<path id="font_2_64" d="M.27598573 .18710327V.24511719H.010986328V.18710327H.27598573Z"/>
<path id="font_2_106" d="M.45700074 .17037964C.45700074 .252594 .3939972 .33088685 .2899933 .35191346 .37199403 .37893678 .42999269 .4490509 .42999269 .52809146 .42999269 .6100464 .34199525 .6660156 .24598694 .6660156 .14498902 .6660156 .068984989 .60606387 .068984989 .53009036 .068984989 .49710084 .09098816 .47808839 .11999512 .47808839 .15098572 .47808839 .17098999 .50009158 .17098999 .5290985 .17098999 .57910159 .12399292 .57910159 .10899353 .57910159 .13999939 .62802127 .20599365 .64100649 .24198914 .64100649 .2829895 .64100649 .33799745 .6190338 .33799745 .5290985 .33799745 .51708987 .33599855 .45906068 .30999757 .4149933 .27999879 .36691285 .24598694 .36390687 .22099304 .36291505 .21299744 .36190797 .18899536 .35990907 .18199158 .35990907 .17399597 .35890199 .16699219 .35791017 .16699219 .3479004 .16699219 .33691407 .17399597 .33691407 .19099427 .33691407H.23498535C.31698609 .33691407 .35398866 .2686615 .35398866 .17037964 .35398866 .034469606 .2849884 .0055389406 .24099732 .0055389406 .19799805 .0055389406 .12298584 .022491456 .08799744 .08137512 .12298584 .07637024 .1539917 .09837341 .1539917 .1363678 .1539917 .17237854 .1269989 .19238281 .09799194 .19238281 .07398987 .19238281 .041992189 .17837525 .041992189 .1343689 .041992189 .043441774 .1349945-.022460938 .24398804-.022460938 .3659973-.022460938 .45700074 .06838989 .45700074 .17037964Z"/>
<path id="font_2_107" d="M.44898988 .17396546H.42399598C.4189911 .14398194 .4119873 .099990848 .4019928 .084991458 .394989 .07699585 .32899476 .07699585 .30699159 .07699585H.1269989L.23298645 .17996216C.3889923 .31803895 .44898988 .37210084 .44898988 .47216798 .44898988 .5860901 .35899354 .6660156 .23699951 .6660156 .12399292 .6660156 .049987794 .57411196 .049987794 .48516847 .049987794 .4291687 .099990848 .4291687 .102996829 .4291687 .11999512 .4291687 .15499878 .44117738 .15499878 .48217774 .15499878 .5081787 .13699341 .5341797 .101989749 .5341797 .09399414 .5341797 .09199524 .5341797 .08898926 .5331726 .11199951 .59806826 .1659851 .63500979 .22399903 .63500979 .31498719 .63500979 .35798646 .5541382 .35798646 .47216798 .35798646 .39196778 .30799867 .31297303 .25299073 .25097657L.06098938 .036987306C.049987794 .025985718 .049987794 .023986817 .049987794 0H.42099L.44898988 .17396546Z"/>
<path id="font_2_82" d="M.4189911 0V.0309906H.3869934C.29699708 .0309906 .2939911 .041992189 .2939911 .07902527V.64012148C.2939911 .6640167 .2939911 .6660156 .2709961 .6660156 .20899964 .60227969 .12098694 .60227969 .08898926 .60227969V.57128909C.10899353 .57128909 .16799927 .57128909 .21998596 .5972748V.07902527C.21998596 .042999269 .21699524 .0309906 .1269989 .0309906H.09498596V0C.12998963 .0029907227 .21699524 .0029907227 .25698854 .0029907227 .29699708 .0029907227 .38398744 .0029907227 .4189911 0Z"/>
<path id="font_1_2" d="M.48599244 .38136292C.48999024 .39537049 .48999024 .39736939 .48999024 .40437318 .48999024 .42237855 .47599793 .43138124 .46099855 .43138124 .45098878 .43138124 .43499757 .42536927 .42599488 .41036988 .42399598 .405365 .41600038 .37435914 .4119873 .35635377 .40499879 .33035279 .397995 .30334474 .3919983 .27633668L.34700013 .09628296C.34298707 .08126831 .2999878 .011245728 .23399353 .011245728 .18299866 .011245728 .17199707 .055267335 .17199707 .0922699 .17199707 .1382904 .18899536 .20030213 .22299195 .28833009 .23899842 .3293457 .24299622 .3403473 .24299622 .36035157 .24299622 .405365 .21099854 .4423828 .16099549 .4423828 .06599426 .4423828 .0289917 .29733277 .0289917 .28833009 .0289917 .27833558 .038986207 .27833558 .040985109 .27833558 .050994874 .27833558 .051986696 .28033448 .056991579 .29634095 .083999637 .3903656 .12399292 .42037965 .1579895 .42037965 .1659851 .42037965 .18299866 .42037965 .18299866 .3883667 .18299866 .36335755 .17298889 .3373413 .1659851 .31834413 .12599182 .21231079 .10798645 .1552887 .10798645 .10827637 .10798645 .019256592 .17098999-.0107421879 .22999573-.0107421879 .2689972-.0107421879 .30299378 .0062561037 .33099366 .03425598 .31799317-.017745972 .30599977-.06674194 .2659912-.11973572 .23999024-.15385437 .20199585-.18309021 .1559906-.18309021 .14199829-.18309021 .09700012-.18005371 .07998657-.14074707 .09599304-.14074707 .10899353-.14074707 .12298584-.1287384 .1329956-.11973572 .14299011-.10673523 .14299011-.08773804 .14299011-.056747438 .115997318-.052734376 .10598755-.052734376 .08299255-.052734376 .049987794-.068740848 .049987794-.11773682 .049987794-.16796875 .09399414-.20507813 .1559906-.20507813 .25898744-.20507813 .3619995-.11373901 .3899994-.00074768069L.48599244 .38136292Z"/>
</defs>
<path transform="matrix(1,0,0,-1.0001,100.308,47.105409)" stroke-width=".3985" stroke-linecap="butt" stroke-miterlimit="10" stroke-linejoin="miter" fill="none" stroke="#000000" d="M-99.21382 0H98.75554"/>
<path transform="matrix(1,0,0,-1.0001,199.06354,47.105409)" stroke-width=".31879" stroke-linecap="round" stroke-linejoin="round" fill="none" stroke="#000000" d="M-1.19551 1.59401C-1.09587 .99626 0 .09961 .29886 0 0-.09961-1.09587-.99626-1.19551-1.59401"/>
<use data-text="x" xlink:href="#font_1_1" transform="matrix(9.9626,0,0,-9.963596,203.04199,43.585058)"/>
<path transform="matrix(1,0,0,-1.0001,100.308,47.105409)" stroke-width=".3985" stroke-linecap="butt" stroke-miterlimit="10" stroke-linejoin="miter" fill="none" stroke="#000000" d="M-85.04042 2.83484V-2.83484"/>
<use data-text="-" xlink:href="#font_2_64" transform="matrix(9.9626,0,0,-9.963596,11.117996,60.096708)"/>
<use data-text="3" xlink:href="#font_2_106" transform="matrix(9.9626,0,0,-9.963596,14.435547,60.096708)"/>
<path transform="matrix(1,0,0,-1.0001,100.308,47.105409)" stroke-width=".3985" stroke-linecap="butt" stroke-miterlimit="10" stroke-linejoin="miter" fill="none" stroke="#000000" d="M-56.69362 2.83484V-2.83484"/>
<use data-text="-" xlink:href="#font_2_64" transform="matrix(9.9626,0,0,-9.963596,39.464998,60.096708)"/>
<use data-text="2" xlink:href="#font_2_107" transform="matrix(9.9626,0,0,-9.963596,42.782548,60.096708)"/>
<path transform="matrix(1,0,0,-1.0001,100.308,47.105409)" stroke-width=".3985" stroke-linecap="butt" stroke-miterlimit="10" stroke-linejoin="miter" fill="none" stroke="#000000" d="M-28.3468 2.83484V-2.83484"/>
<use data-text="-" xlink:href="#font_2_64" transform="matrix(9.9626,0,0,-9.963596,67.812,60.096708)"/>
<use data-text="1" xlink:href="#font_2_82" transform="matrix(9.9626,0,0,-9.963596,71.12955,60.096708)"/>
<path transform="matrix(1,0,0,-1.0001,100.308,47.105409)" stroke-width=".3985" stroke-linecap="butt" stroke-miterlimit="10" stroke-linejoin="miter" fill="none" stroke="#000000" d="M28.3468 2.83484V-2.83484"/>
<use data-text="1" xlink:href="#font_2_82" transform="matrix(9.9626,0,0,-9.963596,126.164,60.096708)"/>
<path transform="matrix(1,0,0,-1.0001,100.308,47.105409)" stroke-width=".3985" stroke-linecap="butt" stroke-miterlimit="10" stroke-linejoin="miter" fill="none" stroke="#000000" d="M56.69362 2.83484V-2.83484"/>
<use data-text="2" xlink:href="#font_2_107" transform="matrix(9.9626,0,0,-9.963596,154.511,60.096708)"/>
<path transform="matrix(1,0,0,-1.0001,100.308,47.105409)" stroke-width=".3985" stroke-linecap="butt" stroke-miterlimit="10" stroke-linejoin="miter" fill="none" stroke="#000000" d="M85.04042 2.83484V-2.83484"/>
<use data-text="3" xlink:href="#font_2_106" transform="matrix(9.9626,0,0,-9.963596,182.858,60.096708)"/>
<path transform="matrix(1,0,0,-1.0001,100.308,47.105409)" stroke-width=".3985" stroke-linecap="butt" stroke-miterlimit="10" stroke-linejoin="miter" fill="none" stroke="#000000" d="M0-7.08669V34.97522"/>
<path transform="matrix(0,-1.0001,-1,-0,100.308,12.12669)" stroke-width=".31879" stroke-linecap="round" stroke-linejoin="round" fill="none" stroke="#000000" d="M-1.19551 1.59401C-1.09587 .99626 0 .09961 .29886 0 0-.09961-1.09587-.99626-1.19551-1.59401"/>
<use data-text="y" xlink:href="#font_1_2" transform="matrix(9.9626,0,0,-9.963596,103.827999,6.2103197)"/>
<path transform="matrix(1,0,0,-1.0001,100.308,47.105409)" stroke-width=".3985" stroke-linecap="butt" stroke-miterlimit="10" stroke-linejoin="miter" fill="none" stroke="#000000" d="M-98.75554 .00041H-97.88246-96.55112-95.21976-93.88841-92.55705-91.22571-89.89435-88.563-87.23164-85.9003L-84.56895 .00345-83.2376 .00473-81.90625 .00647-80.57489 .00864-79.24355 .01123-77.91219 .0147-76.58084 .01901-75.24948 .02463-73.91814 .03157-72.58678 .04022-71.25543 .05103-69.92407 .06444-68.59271 .08087-67.26137 .10164-65.93001 .12671-64.59868 .157-63.26732 .1942-61.93597 .23918-60.60461 .29195-59.27327 .35683-57.94191 .43338-56.61057 .52422-55.2792 .63193-53.94785 .75693-52.6165 .9014-51.28514 1.07138-49.9538 1.26991-48.62244 1.49397-47.29109 1.7522-45.95973 2.04416-44.62839 2.37592-43.29704 2.75006-41.9657 3.16702-40.63434 3.632-39.30298 4.14499-37.97163 4.71205-36.64027 5.33318-35.30893 6.00793-33.97757 6.73936-32.64622 7.52486-31.31487 8.36699-29.98352 9.2602-28.65216 10.20702-27.32082 11.19666-25.98946 12.23174-24.65811 13.30312-23.32675 14.4035-21.9954 15.52637-20.66406 16.6661-19.3327 17.80585-18.00136 18.94298-16.67 20.06284-15.33865 21.15715-14.0073 22.20908-12.67595 23.213-11.34459 24.15723-10.01324 25.0275-8.68188 25.81299-7.35052 26.50763-6.01918 27.10326-4.68782 27.58812-3.35648 27.95665-2.02513 28.20882-.69379 28.33643 .63754 28.33945 1.96889 28.21747 3.30025 27.97049 4.63159 27.605 5.96295 27.12573 7.29431 26.53618 8.62566 25.84413 9.95702 25.06168 11.28836 24.194 12.61972 23.25539 13.95107 22.2519 15.28242 21.20258 16.61377 20.11084 17.94513 18.991 19.27646 17.8543 20.60782 16.71411 21.93918 15.57437 23.27052 14.4515 24.60188 13.34854 25.93323 12.27672 27.26459 11.24208 28.59593 10.24681 29.92729 9.29999 31.25864 8.40376 32.59 7.55902 33.92134 6.7705 35.2527 6.03606 36.58406 5.3587 37.9154 4.73756 39.24677 4.16792 40.5781 3.6519 41.90945 3.1839 43.2408 2.76694 44.57216 2.38976 45.9035 2.058 47.23486 1.76344 48.56621 1.50522 49.89757 1.27856 51.22893 1.08003 52.56027 .91005 53.89163 .76256 55.22298 .63495 56.55434 .52724 57.88568 .43642 59.21704 .35985 60.54837 .29454 61.87973 .24133 63.21107 .19594 64.54243 .15874 65.8738 .12758 67.20514 .1025 68.5365 .08173 69.86784 .06487 71.1992 .05145 72.53055 .04022 73.86191 .03157 75.19325 .02463 76.52461 .01901 77.85596 .0147 79.18732 .01123 80.51868 .00864 81.85 .00647 83.18137 .00473 84.51271 .00345 85.84407 .00041H87.17542 88.50677 89.83812 91.16948 92.50082 93.83218 95.16354 96.49489 97.82625 98.69931"/>
<path transform="matrix(-1,-0,0,1.0001,1.5524597,47.105)" stroke-width=".31879" stroke-linecap="round" stroke-linejoin="round" fill="none" stroke="#000000" d="M-1.19551 1.59401C-1.09587 .99626 0 .09961 .29886 0 0-.09961-1.09587-.99626-1.19551-1.59401"/>
<path transform="matrix(1,0,0,-1.0001,199.00731,47.105)" stroke-width=".31879" stroke-linecap="round" stroke-linejoin="round" fill="none" stroke="#000000" d="M-1.19551 1.59401C-1.09587 .99626 0 .09961 .29886 0 0-.09961-1.09587-.99626-1.19551-1.59401"/>
</svg>
