<svg xmlns="http://www.w3.org/2000/svg" xmlns:xlink="http://www.w3.org/1999/xlink" version="1.1" width="242" height="148" viewBox="0 0 242 148">
<defs>
<path id="font_1_1" d="M.36698915 .3996582H.45298768C.47299195 .3996582 .48298646 .3996582 .48298646 .41966249 .48298646 .43066407 .47299195 .43066407 .45599366 .43066407H.37298585L.3939972 .5449524C.397995 .5660095 .4119873 .6370239 .41799928 .6490326 .4269867 .66804507 .44400025 .68307498 .46499635 .68307498 .46899415 .68307498 .49499513 .68307498 .5139923 .66503909 .46998597 .661026 .45999146 .6260376 .45999146 .6110382 .45999146 .58802798 .47799684 .57603457 .49699403 .57603457 .522995 .57603457 .5519867 .5980377 .5519867 .6360321 .5519867 .6820679 .5059967 .7050781 .46499635 .7050781 .43099977 .7050781 .36799623 .68707278 .33799745 .58802798 .33198548 .56700137 .32899476 .5569763 .30499269 .43066407H.23599243C.21699524 .43066407 .20599365 .43066407 .20599365 .4116516 .20599365 .3996582 .21499634 .3996582 .23399353 .3996582H.2999878L.22499085 .0048828127C.20698548-.09207153 .18998719-.18309021 .13798523-.18309021 .13398743-.18309021 .10899353-.18309021 .08999634-.16506958 .13598633-.1620636 .14498902-.12606812 .14498902-.111068729 .14498902-.08807373 .1269989-.07606506 .10798645-.07606506 .08198547-.07606506 .052993776-.09806824 .052993776-.13606262 .052993776-.18109131 .09700012-.20507813 .13798523-.20507813 .19299317-.20507813 .23298645-.14607239 .25099183-.108062747 .2829895-.04508972 .30599977 .07583618 .30699159 .082839969L.36698915 .3996582Z"/>
<path id="font_2_1" d="M.33099366-.2400055C.33099366-.23701477 .33099366-.23500061 .31399537-.21800232 .18899536-.0920105 .15699768 .09700012 .15699768 .25 .15699768 .42399598 .19499207 .59799197 .31799317 .72299197 .33099366 .73498538 .33099366 .7369995 .33099366 .73999026 .33099366 .746994 .32699586 .75 .32099916 .75 .31098939 .75 .22099304 .6819916 .1619873 .5549927 .11099243 .44499208 .09899902 .33399964 .09899902 .25 .09899902 .17199707 .10998535 .050994874 .16499329-.06201172 .22499085-.18501282 .31098939-.25 .32099916-.25 .32699586-.25 .33099366-.24700928 .33099366-.2400055Z"/>
<path id="font_2_7" d="M.44898988 .20022583C.44898988 .3193512 .36698915 .41944886 .25898744 .41944886 .21099854 .41944886 .16799927 .40345765 .13198853 .36842347V.5637665C.1519928 .5577698 .18499756 .55078127 .21699524 .55078127 .33999635 .55078127 .4099884 .6417694 .4099884 .6547699 .4099884 .6607666 .40699769 .6657715 .3999939 .6657715 .39898683 .6657715 .39698792 .6657715 .3919983 .66278079 .37199403 .6537781 .32299806 .6337738 .2559967 .6337738 .21598816 .6337738 .16999817 .6407776 .12298584 .6617737 .114990238 .66477969 .11299133 .66477969 .11099243 .66477969 .100997928 .66477969 .100997928 .6567688 .100997928 .6407776V.34439088C.100997928 .32637025 .100997928 .31835938 .114990238 .31835938 .12199402 .31835938 .12399292 .32136537 .12799073 .32736207 .13899231 .3433838 .17599488 .39746095 .25698854 .39746095 .30899049 .39746095 .33399964 .35139466 .34199525 .33337403 .35798646 .29632569 .3600006 .25727845 .3600006 .20722962 .3600006 .17222595 .3600006 .11222839 .33599855 .07035828 .31199647 .031463624 .2749939 .0055389406 .22898865 .0055389406 .1559906 .0055389406 .09899902 .058380128 .08198547 .11723328 .084991458 .1162262 .08799744 .115234378 .09899902 .115234378 .13198853 .115234378 .14898682 .14022827 .14898682 .16423035 .14898682 .18823242 .13198853 .21322632 .09899902 .21322632 .084991458 .21322632 .049987794 .20622254 .049987794 .16023255 .049987794 .07434082 .11898804-.022460938 .23098755-.022460938 .34700013-.022460938 .44898988 .073349 .44898988 .20022583Z"/>
<path id="font_2_2" d="M.2889862 .25C.2889862 .32798768 .27799989 .44898988 .22299195 .56199648 .16299439 .68499758 .07699585 .75 .066986087 .75 .06098938 .75 .056991579 .74598696 .056991579 .73999026 .056991579 .7369995 .056991579 .73498538 .07598877 .71699526 .17399597 .6179962 .23098755 .45899964 .23098755 .25 .23098755 .07899475 .19400025-.09700012 .069992069-.2230072 .056991579-.23500061 .056991579-.23701477 .056991579-.2400055 .056991579-.2460022 .06098938-.25 .066986087-.25 .07699585-.25 .16699219-.18200684 .22599793-.055007936 .2769928 .054992677 .2889862 .16600037 .2889862 .25Z"/>
<path id="font_2_6" d="M.2939911 .16503906V.07800293C.2939911 .041992189 .2919922 .0309906 .21798706 .0309906H.19699097V0C.23799134 .0029907227 .2899933 .0029907227 .33198548 .0029907227 .37399293 .0029907227 .4269867 .0029907227 .46798707 0V.0309906H.44699098C.37298585 .0309906 .37098695 .041992189 .37098695 .07800293V.16503906H.47099305V.19602967H.37098695V.65075686C.37098695 .67074587 .37098695 .6767578 .35499574 .6767578 .34599305 .6767578 .34298707 .6767578 .33499146 .66474917L.027999878 .19602967V.16503906H.2939911M.2999878 .19602967H.055999757L.2999878 .5688019V.19602967Z"/>
<path id="font_2_5" d="M.2899933 .35191346C.37199403 .37893678 .42999269 .4490509 .42999269 .52809146 .42999269 .6100464 .34199525 .6660156 .24598694 .6660156 .14498902 .6660156 .068984989 .60606387 .068984989 .53009036 .068984989 .49710084 .09098816 .47808839 .11999512 .47808839 .15098572 .47808839 .17098999 .50009158 .17098999 .5290985 .17098999 .57910159 .12399292 .57910159 .10899353 .57910159 .13999939 .62802127 .20599365 .64100649 .24198914 .64100649 .2829895 .64100649 .33799745 .6190338 .33799745 .5290985 .33799745 .51708987 .33599855 .45906068 .30999757 .4149933 .27999879 .36691285 .24598694 .36390687 .22099304 .36291505 .21299744 .36190797 .18899536 .35990907 .18199158 .35990907 .17399597 .35890199 .16699219 .35791017 .16699219 .3479004 .16699219 .33691407 .17399597 .33691407 .19099427 .33691407H.23498535C.31698609 .33691407 .35398866 .2686615 .35398866 .17037964 .35398866 .034469606 .2849884 .0055389406 .24099732 .0055389406 .19799805 .0055389406 .12298584 .022491456 .08799744 .08137512 .12298584 .07637024 .1539917 .09837341 .1539917 .1363678 .1539917 .17237854 .1269989 .19238281 .09799194 .19238281 .07398987 .19238281 .041992189 .17837525 .041992189 .1343689 .041992189 .043441774 .1349945-.022460938 .24398804-.022460938 .3659973-.022460938 .45700074 .06838989 .45700074 .17037964 .45700074 .252594 .3939972 .33088685 .2899933 .35191346Z"/>
<path id="font_2_4" d="M.1269989 .07699585 .23298645 .18003845C.3889923 .31811524 .44898988 .3721466 .44898988 .47216798 .44898988 .5860901 .35899354 .6660156 .23699951 .6660156 .12399292 .6660156 .049987794 .57411196 .049987794 .48516847 .049987794 .4291687 .099990848 .4291687 .102996829 .4291687 .11999512 .4291687 .15499878 .44117738 .15499878 .48217774 .15499878 .5081787 .13699341 .5341797 .101989749 .5341797 .09399414 .5341797 .09199524 .5341797 .08898926 .5331726 .11199951 .59806826 .1659851 .63500979 .22399903 .63500979 .31498719 .63500979 .35798646 .5541382 .35798646 .47216798 .35798646 .39215089 .30799867 .31311036 .25299073 .25108338L.06098938 .036987306C.049987794 .025985718 .049987794 .023986817 .049987794 0H.42099L.44898988 .17404175H.42399598C.4189911 .14402771 .4119873 .1000061 .4019928 .084991458 .394989 .07699585 .32899476 .07699585 .30699159 .07699585H.1269989Z"/>
<path id="font_2_3" d="M.2939911 .64004519C.2939911 .66400149 .2939911 .6660156 .2709961 .6660156 .20899964 .60227969 .12098694 .60227969 .08898926 .60227969V.57128909C.10899353 .57128909 .16799927 .57128909 .21998596 .5972748V.07902527C.21998596 .042999269 .21699524 .0309906 .1269989 .0309906H.09498596V0C.12998963 .0029907227 .21699524 .0029907227 .25698854 .0029907227 .29699708 .0029907227 .38398744 .0029907227 .4189911 0V.0309906H.3869934C.29699708 .0309906 .2939911 .041992189 .2939911 .07902527V.64004519Z"/>
</defs>
<path transform="matrix(1.00005,0,0,-1.00006,142.32216,222.71239)" stroke-width=".3985" stroke-linecap="butt" stroke-miterlimit="10" stroke-linejoin="miter" fill="none" stroke="#000000" d="M-12.66069 204.2991H12.66069V220.903H-12.66069Z"/>
<use data-text="f" xlink:href="#font_1_1" transform="matrix(9.963098,0,0,-9.963197,132.98169,12.589783)"/>
<use data-text="(" xlink:href="#font_2_1" transform="matrix(9.963098,0,0,-9.963197,138.93198,12.589783)"/>
<use data-text="5" xlink:href="#font_2_7" transform="matrix(9.963098,0,0,-9.963197,142.79767,12.589783)"/>
<use data-text=")" xlink:href="#font_2_2" transform="matrix(9.963098,0,0,-9.963197,147.7792,12.589783)"/>
<path transform="matrix(1.00005,0,0,-1.00006,142.32216,222.71239)" stroke-width=".3985" stroke-linecap="butt" stroke-miterlimit="10" stroke-linejoin="miter" fill="none" stroke="#000000" d="M-55.1809 161.7789H-29.85952V178.3828H-55.1809Z"/>
<use data-text="f" xlink:href="#font_1_1" transform="matrix(9.963098,0,0,-9.963197,90.459568,55.112337)"/>
<use data-text="(" xlink:href="#font_2_1" transform="matrix(9.963098,0,0,-9.963197,96.40985,55.112337)"/>
<use data-text="4" xlink:href="#font_2_6" transform="matrix(9.963098,0,0,-9.963197,100.27554,55.112337)"/>
<use data-text=")" xlink:href="#font_2_2" transform="matrix(9.963098,0,0,-9.963197,105.25708,55.112337)"/>
<path transform="matrix(1.00005,0,0,-1.00006,142.32216,222.71239)" stroke-width=".3985" stroke-linecap="butt" stroke-miterlimit="10" stroke-linejoin="miter" fill="none" stroke="#000000" d="M29.85951 161.7789H55.180894V178.3828H29.85951Z"/>
<use data-text="f" xlink:href="#font_1_1" transform="matrix(9.963098,0,0,-9.963197,175.50382,55.112337)"/>
<use data-text="(" xlink:href="#font_2_1" transform="matrix(9.963098,0,0,-9.963197,181.4541,55.112337)"/>
<use data-text="3" xlink:href="#font_2_5" transform="matrix(9.963098,0,0,-9.963197,185.3198,55.112337)"/>
<use data-text=")" xlink:href="#font_2_2" transform="matrix(9.963098,0,0,-9.963197,190.30133,55.112337)"/>
<path transform="matrix(1.00005,0,0,-1.00006,142.32216,222.71239)" stroke-width=".3985" stroke-linecap="butt" stroke-miterlimit="10" stroke-linejoin="miter" fill="none" stroke="#000000" d="M-8.50116 204.10608-33.69908 178.91152"/>
<path transform="matrix(-.7071754,.7070924,.7070854,.7071824,108.62141,43.79013)" stroke-width=".31879" stroke-linecap="round" stroke-linejoin="round" fill="none" stroke="#000000" d="M-1.19551 1.59401C-1.09587 .99626 0 .09961 .29886 0 0-.09961-1.09587-.99626-1.19551-1.59401"/>
<path transform="matrix(1.00005,0,0,-1.00006,142.32216,222.71239)" stroke-width=".3985" stroke-linecap="butt" stroke-miterlimit="10" stroke-linejoin="miter" fill="none" stroke="#000000" d="M8.50116 204.10608 33.69908 178.91152"/>
<path transform="matrix(.7071754,.7070924,.7070854,-.7071824,176.02292,43.79013)" stroke-width=".31879" stroke-linecap="round" stroke-linejoin="round" fill="none" stroke="#000000" d="M-1.19551 1.59401C-1.09587 .99626 0 .09961 .29886 0 0-.09961-1.09587-.99626-1.19551-1.59401"/>
<path transform="matrix(1.00005,0,0,-1.00006,142.32216,222.71239)" stroke-width=".3985" stroke-linecap="butt" stroke-miterlimit="10" stroke-linejoin="miter" fill="none" stroke="#000000" d="M-97.70111 119.25868H-72.37973V135.86258H-97.70111Z"/>
<use data-text="f" xlink:href="#font_1_1" transform="matrix(9.963098,0,0,-9.963197,47.936449,97.63489)"/>
<use data-text="(" xlink:href="#font_2_1" transform="matrix(9.963098,0,0,-9.963197,53.886735,97.63489)"/>
<use data-text="3" xlink:href="#font_2_5" transform="matrix(9.963098,0,0,-9.963197,57.752428,97.63489)"/>
<use data-text=")" xlink:href="#font_2_2" transform="matrix(9.963098,0,0,-9.963197,62.733964,97.63489)"/>
<path transform="matrix(1.00005,0,0,-1.00006,142.32216,222.71239)" stroke-width=".3985" stroke-linecap="butt" stroke-miterlimit="10" stroke-linejoin="miter" fill="none" stroke="#000000" d="M-55.1809 119.25868H-29.85952V135.86258H-55.1809Z"/>
<use data-text="f" xlink:href="#font_1_1" transform="matrix(9.963098,0,0,-9.963197,90.459568,97.63489)"/>
<use data-text="(" xlink:href="#font_2_1" transform="matrix(9.963098,0,0,-9.963197,96.40985,97.63489)"/>
<use data-text="2" xlink:href="#font_2_4" transform="matrix(9.963098,0,0,-9.963197,100.27554,97.63489)"/>
<use data-text=")" xlink:href="#font_2_2" transform="matrix(9.963098,0,0,-9.963197,105.25708,97.63489)"/>
<path transform="matrix(1.00005,0,0,-1.00006,142.32216,222.71239)" stroke-width=".3985" stroke-linecap="butt" stroke-miterlimit="10" stroke-linejoin="miter" fill="none" stroke="#000000" d="M-51.02307 161.58457-76.22086 136.39"/>
<path transform="matrix(-.7071754,.7070924,.7070854,.7071824,66.09751,86.31419)" stroke-width=".31879" stroke-linecap="round" stroke-linejoin="round" fill="none" stroke="#000000" d="M-1.19551 1.59401C-1.09587 .99626 0 .09961 .29886 0 0-.09961-1.09587-.99626-1.19551-1.59401"/>
<path transform="matrix(1.00005,0,0,-1.00006,142.32216,222.71239)" stroke-width=".3985" stroke-linecap="butt" stroke-miterlimit="10" stroke-linejoin="miter" fill="none" stroke="#000000" d="M-42.52173 161.58457-42.52159 136.52426"/>
<path transform="matrix(0,1.00006,1.00005,0,99.79845,86.17995)" stroke-width=".31879" stroke-linecap="round" stroke-linejoin="round" fill="none" stroke="#000000" d="M-1.19551 1.59401C-1.09587 .99626 0 .09961 .29886 0 0-.09961-1.09587-.99626-1.19551-1.59401"/>
<path transform="matrix(1.00005,0,0,-1.00006,142.32216,222.71239)" stroke-width=".3985" stroke-linecap="butt" stroke-miterlimit="10" stroke-linejoin="miter" fill="none" stroke="#000000" d="M29.85951 119.25868H55.180894V135.86258H29.85951Z"/>
<use data-text="f" xlink:href="#font_1_1" transform="matrix(9.963098,0,0,-9.963197,175.50382,97.63489)"/>
<use data-text="(" xlink:href="#font_2_1" transform="matrix(9.963098,0,0,-9.963197,181.4541,97.63489)"/>
<use data-text="2" xlink:href="#font_2_4" transform="matrix(9.963098,0,0,-9.963197,185.3198,97.63489)"/>
<use data-text=")" xlink:href="#font_2_2" transform="matrix(9.963098,0,0,-9.963197,190.30133,97.63489)"/>
<path transform="matrix(1.00005,0,0,-1.00006,142.32216,222.71239)" stroke-width=".3985" stroke-linecap="butt" stroke-miterlimit="10" stroke-linejoin="miter" fill="none" stroke="#000000" d="M72.37973 119.25868H97.70111V135.86258H72.37973Z"/>
<use data-text="f" xlink:href="#font_1_1" transform="matrix(9.963098,0,0,-9.963197,218.02594,97.63489)"/>
<use data-text="(" xlink:href="#font_2_1" transform="matrix(9.963098,0,0,-9.963197,223.97623,97.63489)"/>
<use data-text="1" xlink:href="#font_2_3" transform="matrix(9.963098,0,0,-9.963197,227.84192,97.63489)"/>
<use data-text=")" xlink:href="#font_2_2" transform="matrix(9.963098,0,0,-9.963197,232.82346,97.63489)"/>
<path transform="matrix(1.00005,0,0,-1.00006,142.32216,222.71239)" stroke-width=".3985" stroke-linecap="butt" stroke-miterlimit="10" stroke-linejoin="miter" fill="none" stroke="#000000" d="M42.52173 161.58457 42.52159 136.52426"/>
<path transform="matrix(0,1.00006,1.00005,0,184.84587,86.17995)" stroke-width=".31879" stroke-linecap="round" stroke-linejoin="round" fill="none" stroke="#000000" d="M-1.19551 1.59401C-1.09587 .99626 0 .09961 .29886 0 0-.09961-1.09587-.99626-1.19551-1.59401"/>
<path transform="matrix(1.00005,0,0,-1.00006,142.32216,222.71239)" stroke-width=".3985" stroke-linecap="butt" stroke-miterlimit="10" stroke-linejoin="miter" fill="none" stroke="#000000" d="M51.02307 161.58457 76.22086 136.39"/>
<path transform="matrix(.7071754,.7070924,.7070854,-.7071824,218.54682,86.31419)" stroke-width=".31879" stroke-linecap="round" stroke-linejoin="round" fill="none" stroke="#000000" d="M-1.19551 1.59401C-1.09587 .99626 0 .09961 .29886 0 0-.09961-1.09587-.99626-1.19551-1.59401"/>
<path transform="matrix(1.00005,0,0,-1.00006,142.32216,222.71239)" stroke-width=".3985" stroke-linecap="butt" stroke-miterlimit="10" stroke-linejoin="miter" fill="none" stroke="#000000" d="M-140.22133 76.73846H-114.89995V93.34236H-140.22133Z"/>
<use data-text="f" xlink:href="#font_1_1" transform="matrix(9.963098,0,0,-9.963197,5.414322,140.15744)"/>
<use data-text="(" xlink:href="#font_2_1" transform="matrix(9.963098,0,0,-9.963197,11.364609,140.15744)"/>
<use data-text="2" xlink:href="#font_2_4" transform="matrix(9.963098,0,0,-9.963197,15.230301,140.15744)"/>
<use data-text=")" xlink:href="#font_2_2" transform="matrix(9.963098,0,0,-9.963197,20.211838,140.15744)"/>
<path transform="matrix(1.00005,0,0,-1.00006,142.32216,222.71239)" stroke-width=".3985" stroke-linecap="butt" stroke-miterlimit="10" stroke-linejoin="miter" fill="none" stroke="#000000" d="M-97.70111 76.73846H-72.37973V93.34236H-97.70111Z"/>
<use data-text="f" xlink:href="#font_1_1" transform="matrix(9.963098,0,0,-9.963197,47.936449,140.15744)"/>
<use data-text="(" xlink:href="#font_2_1" transform="matrix(9.963098,0,0,-9.963197,53.886735,140.15744)"/>
<use data-text="1" xlink:href="#font_2_3" transform="matrix(9.963098,0,0,-9.963197,57.752428,140.15744)"/>
<use data-text=")" xlink:href="#font_2_2" transform="matrix(9.963098,0,0,-9.963197,62.733964,140.15744)"/>
<path transform="matrix(1.00005,0,0,-1.00006,142.32216,222.71239)" stroke-width=".3985" stroke-linecap="butt" stroke-miterlimit="10" stroke-linejoin="miter" fill="none" stroke="#000000" d="M-93.54498 119.06305-118.74263 93.86848"/>
<path transform="matrix(-.7071754,.7070924,.7070854,.7071824,23.573624,128.83826)" stroke-width=".31879" stroke-linecap="round" stroke-linejoin="round" fill="none" stroke="#000000" d="M-1.19551 1.59401C-1.09587 .99626 0 .09961 .29886 0 0-.09961-1.09587-.99626-1.19551-1.59401"/>
<path transform="matrix(1.00005,0,0,-1.00006,142.32216,222.71239)" stroke-width=".3985" stroke-linecap="butt" stroke-miterlimit="10" stroke-linejoin="miter" fill="none" stroke="#000000" d="M-85.04364 119.06305-85.04338 94.00273"/>
<path transform="matrix(.000020000999,1.0000399,1.0000299,-.000020001199,57.27453,128.70401)" stroke-width=".31879" stroke-linecap="round" stroke-linejoin="round" fill="none" stroke="#000000" d="M-1.19551 1.59401C-1.09587 .99626 0 .09961 .29886 0 0-.09961-1.09587-.99626-1.19551-1.59401"/>
</svg>
