<svg xmlns="http://www.w3.org/2000/svg" xmlns:xlink="http://www.w3.org/1999/xlink" xmlns:inkscape="http://www.inkscape.org/namespaces/inkscape" version="1.1" width="113" height="150" viewBox="0 0 113 150">
<defs>
<path id="font_1_65" d="M.34298707 0V.032989503H.31900025C.23999024 .032989503 .23699951 .04298401 .23699951 .080963138V.6016388C.23699951 .6396179 .23999024 .6496124 .31900025 .6496124H.34298707V.6826172L.19099427 .6796112 .038986207 .6826172V.6496124H.06298828C.14199829 .6496124 .14498902 .6396179 .14498902 .6016388V.080963138C.14498902 .04298401 .14199829 .032989503 .06298828 .032989503H.038986207V0L.19099427 .0029907227 .34298707 0Z"/>
<path id="font_1_77" d="M.56199648 0V.032989503C.49798585 .032989503 .48599244 .032989503 .48599244 .07803345V.3032837C.48599244 .38737489 .44799806 .44140626 .34298707 .44140626 .24398804 .44140626 .19898987 .36935426 .18699646 .34532167H.18598938V.44140626L.040985109 .43045045V.39746095C.10899353 .39746095 .116989139 .3904419 .116989139 .3413849V.078048709C.116989139 .032989503 .10499573 .032989503 .040985109 .032989503V0C.083999637 .0029907227 .12799073 .0029907227 .15499878 .0029907227 .18399048 .0029907227 .22599793 .0029907227 .2689972 0V.032989503C.20498657 .032989503 .19299317 .032989503 .19299317 .078048709V.25927735C.19299317 .36434938 .272995 .4133911 .33399964 .4133911 .394989 .4133911 .4099884 .37036134 .4099884 .3072815V.07803345C.4099884 .032989503 .397995 .032989503 .33399964 .032989503V0C.3769989 .0029907227 .42099 .0029907227 .44799806 .0029907227 .47698976 .0029907227 .5189972 .0029907227 .56199648 0Z"/>
<path id="font_1_105" d="M.35299684 .1250763V.1809845H.32199098V.12705994C.32199098 .058166505 .29100038 .021224976 .25299073 .021224976 .18598938 .021224976 .18598938 .10710144 .18598938 .12307739V.3976593H.33499146V.43066407H.18598938V.6142578H.15499878C.1539917 .52345278 .11299133 .4286499 .019989014 .42565919V.3976593H.10998535V.1250763C.10998535 .008224487 .19999695-.009765625 .24598694-.009765625 .31298829-.010009766 .35299684 .049987794 .35299684 .125V.1250763Z"/>
<path id="font_1_50" d="M.44099427 .12036133C.44099427 .12435913 .43798829 .13438416 .4249878 .13438416 .4139862 .13438416 .4119873 .12736511 .4099884 .12136841 .37399293 .024230957 .28799439 .021224976 .269989 .021224976 .22499085 .021224976 .1789856 .042251588 .14898682 .08831787 .11898804 .13438416 .11898804 .19847107 .11898804 .22851563H.41299439C.43499757 .22851563 .44099427 .22851563 .44099427 .25151063 .44099427 .34039308 .3919983 .44628907 .25099183 .44628907 .1269989 .44628907 .02999878 .3433838 .02999878 .21949768 .02999878 .09031677 .13798523-.009765625 .2639923-.009765625 .3909912-.009765625 .44099427 .097335819 .44099427 .12036133M.37298585 .25450135H.11999512C.1289978 .39431764 .21398926 .41827394 .25099183 .41827394 .36799623 .41827394 .37199403 .27748109 .37298585 .25450135Z"/>
<path id="font_1_59" d="M.5149994 .40124513C.5149994 .418396 .5019989 .45239259 .45799256 .45239259 .44099427 .45239259 .3929901 .44839479 .34700013 .40625 .32199098 .4243927 .2829895 .44140626 .23599243 .44140626 .13699341 .44140626 .06399536 .37223817 .06399536 .294281 .06399536 .2472992 .08999634 .21231079 .11099243 .19232178 .08898926 .16732788 .08099365 .13531494 .08099365 .111328128 .08099365 .07032776 .100997928 .0393219 .12298584 .022323609 .070999149 .007904053 .02999878-.031097413 .02999878-.0770874 .02999878-.14909363 .1329956-.20507813 .2649994-.20507813 .3899994-.20507813 .5-.15408325 .5-.0750885 .5-.021102906 .46798707 .020904541 .43499757 .037902833 .37599183 .06889343 .32699586 .06889343 .22898865 .06889343H.17298889C.14199829 .07191467 .116989139 .099105838 .116989139 .13536072 .116989139 .15945435 .12298584 .16845703 .12998963 .17745972 .17199707 .15245056 .21099854 .14746094 .23498535 .14746094 .33399964 .14746094 .40699769 .21644593 .40699769 .29444886 .40699769 .3324585 .3899994 .36445619 .3659973 .39045716 .37998963 .40245057 .41299439 .42344667 .46199037 .42445375 .45799256 .42144776 .45298768 .41645814 .45298768 .40045167 .45298768 .3824463 .46598817 .36946107 .48399354 .36946107 .49798585 .36946107 .5149994 .3784485 .5149994 .40145875V.40124513M.32798768 .29444886C.32798768 .2574463 .32299806 .23146057 .30799867 .2114563 .28599549 .18345642 .2539978 .17645264 .23599243 .17645264 .14299011 .1761322 .14299011 .27218629 .14299011 .29418946 .14299011 .33122254 .147995 .35723878 .16299439 .37724305 .17999268 .40023805 .20799256 .4123993 .23498535 .4123993 .32798768 .4123993 .32798768 .3162079 .32798768 .29418946V.29444886M.44099427-.07601929C.44099427-.13005066 .3639984-.17608643 .2649994-.17608643 .16499329-.17610169 .08898926-.13009644 .08898926-.07609558 .08898926-.055099489 .10499573 .00390625 .18699646 .00390625H.2829895C.30999757 .00390625 .44099427 .00390625 .44099427-.07609558V-.07601929Z"/>
<path id="font_1_96" d="M.38398744 .3784027C.38398744 .4133911 .35198976 .44140626 .30799867 .44140626 .24299622 .44140626 .19898987 .39239503 .17799378 .33639527H.1769867V.44140626L.034988405 .43045045V.39746095C.102996829 .39746095 .11099243 .3904419 .11099243 .3413849V.078048709C.11099243 .032989503 .09899902 .032989503 .034988405 .032989503V0C.07398987 .0029907227 .1289978 .0029907227 .15299988 .0029907227 .21199036 .0029907227 .21398926 .0029907227 .2789917 0V.032989503H.25898744C.18598938 .032989503 .18399048 .044006349 .18399048 .08004761V.22824097C.18399048 .30332948 .21499634 .41145326 .31098939 .41345216 .30499269 .40899659 .29499818 .40098573 .29499818 .37799073 .29499818 .34700013 .31900025 .33299256 .33898927 .33299256 .36299134 .33299256 .38398744 .34899903 .38398744 .37799073V.3784027Z"/>
<path id="font_1_97" d="M.5299988 .18458557C.5299988 .2716217 .47299195 .36065675 .37098695 .38467408L.23298645 .416687C.16899109 .4316864 .12199402 .4827118 .12199402 .5437927 .12199402 .61094668 .17999268 .6740875 .2669983 .6740875 .43998719 .6740875 .46299745 .51171877 .46798707 .4737091 .46998597 .46270753 .47099305 .45570375 .48399354 .45570375 .5 .45570375 .5 .46270753 .5 .4817047V.6781006C.5 .6940918 .5 .70410159 .4869995 .70410159 .47898866 .70410159 .47698976 .7010956 .46998597 .690094L.43499757 .6340027C.3849945 .6890869 .32099916 .70410159 .2659912 .70410159 .14698792 .70410159 .05899048 .61395266 .05899048 .51171877 .05899048 .43569947 .101989749 .39367677 .12098694 .3746643 .15699768 .33865357 .18998719 .3306427 .2979889 .30563355 .38398744 .28562928 .39898683 .2826233 .43199159 .24760437 .44198609 .23660279 .46699525 .20259094 .46699525 .15356446 .46699525 .08453369 .4139862 .011505127 .31999208 .011505127 .20999146 .011505127 .09599304 .06452942 .08999634 .20359802 .08898926 .21960449 .08898926 .22660828 .07499695 .22660828 .05899048 .22660828 .05899048 .21859741 .05899048 .19958496V.004501343C.05899048-.011489868 .05899048-.021484375 .07199097-.021484375 .07998657-.021484375 .08099365-.019485474 .08799744-.009490967 .09199524-.0034942628 .09599304 .005508423 .12399292 .047531129 .18699646-.0084991459 .26098634-.021484375 .32099916-.021484375 .44599916-.021484375 .5299988 .07752991 .5299988 .18458557Z"/>
<path id="font_1_66" d="M.2599945 .0001373291V.03314209C.19499207 .03314209 .19099427 .038146974 .19099427 .07714844V.44140626L.04499817 .43045045V.39746095C.10899353 .39746095 .117996219 .39144898 .117996219 .34239198V.07814026C.117996219 .03314209 .10598755 .03314209 .041992189 .03314209V0C.08099365 .0029907227 .13699341 .0029907227 .1519928 .0029907227 .16499329 .0029907227 .22499085 .0029907227 .2599945 0V.0001373291M.20298767 .6021881C.20298767 .6351929 .1769867 .6582031 .147995 .6582031 .11898804 .6582031 .09298706 .6351929 .09298706 .6021881 .09298706 .5731964 .115997318 .54719546 .147995 .54719546 .1789856 .54719546 .20298767 .5731964 .20298767 .6021881Z"/>
<path id="font_1_47" d="M.55400088 0V.032989503C.48599244 .032989503 .47799684 .039993287 .47799684 .089019779V.69433596L.32899476 .6826172V.6496124C.39698792 .6496124 .40499879 .64263918 .40499879 .5938263V.38339234C.36999513 .42140199 .32299806 .44140626 .2709961 .44140626 .1459961 .44140626 .034988405 .3443756 .034988405 .21531677 .034988405 .09225464 .1349945-.009765625 .26098634-.009765625 .31999208-.009765625 .36898805 .018234253 .4019928 .053237916V-.009765625L.55400088 0M.4019928 .12399292C.4019928 .10598755 .4019928 .101989749 .3869934 .08198547 .35899354 .042236329 .31298829 .018234253 .2659912 .018234253 .21998596 .018234253 .17999268 .042236329 .1559906 .07925415 .1289978 .118270877 .12399292 .16729737 .12399292 .21430969 .12399292 .27233888 .1329956 .3133545 .1559906 .3483734 .17999268 .38539125 .22499085 .4133911 .27598573 .4133911 .32398988 .4133911 .37199403 .38938905 .4019928 .33737184V.12399292Z"/>
<path id="font_1_51" d="M.48599244 .16799927C.48599244 .23098755 .45199586 .272995 .43598939 .2899933 .4189911 .30599977 .41799928 .30699159 .33198548 .36099244 .3880005 .388031 .45599366 .43803407 .45599366 .516037 .45599366 .6110382 .35899354 .66503909 .2659912 .66503909 .1599884 .66503909 .07398987 .59202578 .07398987 .49803163 .07398987 .46102906 .08699036 .42703248 .11199951 .3980255 .1289978 .37702943 .1329956 .37503053 .19499207 .33602906 .070999149 .28050233 .04399109 .20750427 .04399109 .15150452 .04399109 .041503908 .15499878-.021484375 .2639923-.021484375 .3869934-.021484375 .48599244 .06150818 .48599244 .16751099V.16799927M.4059906 .5155029C.4059906 .45750428 .36099244 .4085083 .3019867 .37950135L.1769867 .45451356C.147995 .4718933 .12399292 .5009155 .12399292 .5359497 .12399292 .598999 .19299317 .6390381 .2639923 .6390381 .34199525 .6390381 .4059906 .5859833 .4059906 .5159302V.5155029M.42900086 .13360596C.42900086 .056549074 .34799195 .008514404 .2659912 .008514404 .1769867 .008987427 .100997928 .069992069 .100997928 .1519928 .100997928 .22698975 .15699768 .28599549 .22599793 .31799317L.36099244 .23498535C.3769989 .22599793 .42900086 .19400025 .42900086 .13398743V.13360596Z"/>
<path id="font_1_82" d="M.44699098 0V.032989503H.4119873C.31698609 .032989503 .31399537 .04499817 .31399537 .08203125V.6371765C.31399537 .664032 .31199647 .66503909 .2849884 .66503909 .24398804 .6252289 .19099427 .6013489 .09599304 .6013489V.5683594C.12298584 .5683594 .1769867 .5683594 .23498535 .5953522V.08203125C.23498535 .04499817 .23199463 .032989503 .13699341 .032989503H.101989749V0C.14299011 .0029907227 .22898865 .0029907227 .27398683 .0029907227 .31900025 .0029907227 .4059906 .0029907227 .44699098 0Z"/>
<path id="font_1_101" d="M.48599244 .20263672C.48599244 .33372499 .3869934 .42578126 .27598573 .42578126 .20399475 .42578126 .16099549 .37976075 .13798523 .33073426 .13798523 .41377259 .14498902 .4868164 .18099976 .54782107 .21099854 .5978241 .2619934 .6390381 .32499696 .6390381 .34498597 .6390381 .3909912 .63601687 .4139862 .60084536 .36898805 .5988312 .36499024 .5648346 .36499024 .553833 .36499024 .5238342 .3880005 .50683596 .4119873 .50683596 .42999269 .50683596 .45899964 .51782229 .45899964 .5558319 .45899964 .615921 .4139862 .66503909 .32398988 .66503909 .18499756 .66503909 .04399109 .53282168 .04399109 .31672669 .04399109 .045532228 .16999817-.021484375 .2669983-.021484375 .31498719-.021224976 .36698915-.008224487 .4119873 .03477478 .45199586 .073776248 .48599244 .11578369 .48599244 .20277405V.20263672M.3919983 .20378113C.3919983 .152771 .3919983 .10877991 .37199403 .072784427 .34599305 .026779175 .31098939 .0087890629 .2669983 .0087890629 .21398926 .0087890629 .18099976 .045776369 .1659851 .073776248 .14299011 .118774417 .14099121 .18678284 .14099121 .22477722 .14099121 .32377626 .19499207 .3977661 .27198792 .3977661 .32199098 .3977661 .35198976 .37176515 .37098695 .33677674 .3919983 .29977418 .3919983 .254776 .3919983 .20378113Z"/>
<path id="font_1_106" d="M.48599244 .17131043C.48599244 .25431825 .41999818 .330307 .31799317 .35231019 .39698792 .38031007 .45599366 .44831849 .45599366 .5283203 .45599366 .6080475 .3659973 .66503909 .2619934 .66503909 .15499878 .66503909 .07398987 .6070404 .07398987 .53105166 .07398987 .49404908 .09899902 .4780426 .125 .4780426 .1559906 .4780426 .17599488 .5000458 .17599488 .52905276 .17599488 .56604006 .14399719 .5800476 .12199402 .5810547 .1639862 .6360321 .24099732 .6390381 .25898744 .6390381 .2849884 .63931277 .36099244 .63131716 .36099244 .5283203 .36099244 .458313 .33198548 .41630555 .31799317 .40031434 .28799439 .36930848 .2649994 .36730958 .20399475 .36331178 .18499756 .36231996 .1769867 .36131288 .1769867 .34831239 .1769867 .3343048 .18598938 .3343048 .20298767 .3343048H.25299073C.33198548 .3343048 .38198854 .27630616 .38198854 .17131043 .38198854 .045440675 .31098939 .008514404 .2579956 .008514404 .20298767 .008514404 .12799073 .0284729 .09298706 .08137512 .1289978 .08137512 .1539917 .10437012 .1539917 .13737488 .1539917 .16937256 .1309967 .19238281 .09899902 .19238281 .07199097 .19238281 .04399109 .17536927 .04399109 .13537598 .04399109 .04045105 .1459961-.021484375 .2599945-.021484375 .3929901-.021484375 .48599244 .070388797 .48599244 .17037964V.17131043Z"/>
<path id="font_1_107" d="M.47698976 .17900086H.44599916C.44299317 .15899658 .43499757 .10899353 .4229889 .08999634 .4169922 .08198547 .34098817 .08198547 .32499696 .08198547H.14698792L.28199769 .20399475C.2979889 .2190094 .33999635 .2519989 .35598756 .26600648 .41799928 .3230133 .47698976 .37802125 .47698976 .46902467 .47698976 .58802798 .3769989 .66503909 .2519989 .66503909 .13198853 .6651764 .052993776 .574173 .052993776 .48516847 .052993776 .4361725 .09199524 .4291687 .10598755 .4291687 .1269989 .4291687 .1579895 .4441681 .1579895 .48217774 .1579895 .5341797 .10798645 .5341797 .09599304 .5341797 .125 .6070709 .19198609 .6320343 .24099732 .6320343 .33399964 .6320343 .38198854 .55314639 .38198854 .46917726 .38198854 .36517335 .30899049 .2891693 .19099427 .16816712L.06498718 .03817749C.052993776 .026992798 .052993776 .024993897 .052993776 0H.44799806L.47698976 .17900086Z"/>
<path id="font_1_57" d="M.5 .1640625V.197052H.3939972V.64682009C.3939972 .6668091 .3939972 .6748047 .37298585 .6748047 .3600006 .6748047 .35899354 .6737976 .34899903 .6598053L.02999878 .197052V.1640625H.31199647V.08100891C.31199647 .04399109 .30899049 .032989503 .23199463 .032989503H.20899964V0L.35299684 .0029907227 .49699403 0V.032989503H.47399903C.39698792 .032989503 .3939972 .04399109 .3939972 .08100891V.1640625H.5M.31900025 .197052H.06498718L.31900025 .56585696V.197052Z"/>
<path id="font_1_34" d="M.69200137 .18299866C.69200137 .2639923 .61499026 .34298707 .48999024 .35699464 .598999 .379776 .6619873 .44573976 .6619873 .51368716 .6619873 .6026306 .56199648 .6826172 .42799378 .6826172H.04798889V.6496124H.069992069C.14698792 .6496124 .14898682 .63861086 .14898682 .6016388V.080963138C.14898682 .04399109 .14698792 .032989503 .069992069 .032989503H.04798889V0H.45599366C.59399417-.00018310547 .69200137 .08781433 .69200137 .18281555V.18299866M.5649872 .5137024C.5649872 .445755 .5049896 .3688202 .3909912 .3688202H.23399353V.6086426C.23399353 .64260867 .23599243 .6496124 .28199769 .6496124H.42099C.519989 .6498108 .5649872 .57281497 .5649872 .5138092V.5137024M.59098818 .18389893C.59098818 .10295105 .5239868 .032989503 .42199708 .032989503H.28199769C.23599243 .032989503 .23399353 .039993287 .23399353 .07397461V.3408203H.43699647C.5339966 .34098817 .59098818 .2630005 .59098818 .18399048V.18389893Z"/>
<path id="font_1_81" d="M.5 .21325684C.5 .3382721 .39698792 .44628907 .2649994 .44628907 .1329956 .44628907 .02999878 .3382721 .02999878 .21325684 .02999878 .08824158 .13699341-.009765625 .2649994-.009765625 .3939972-.009765625 .5 .08824158 .5 .21325684M.41099549 .22225952C.41099549 .17625427 .40899659 .12124634 .3809967 .07923889 .35398866 .039230348 .30899049 .021224976 .2649994 .021224976 .21099854 .021224976 .16899109 .047225954 .14698792 .082229617 .12199402 .12324524 .11898804 .17224121 .11898804 .22225952 .11898804 .2602539 .11898804 .32026673 .1499939 .363266 .17599488 .3982849 .21798706 .41827394 .2649994 .41827394 .31698609 .41827394 .3600006 .39328004 .3829956 .35827638 .4099884 .31626893 .41099549 .2622528 .41099549 .22225952Z"/>
<path id="font_1_72" d="M.2669983 0V.032989503C.20298767 .032989503 .19099427 .032989503 .19099427 .07801819V.69433596L.041992189 .6826172V.6496124C.10998535 .6496124 .117996219 .64260867 .117996219 .5936432V.07795715C.117996219 .032989503 .10598755 .032989503 .041992189 .032989503V0C.08099365 .0029907227 .13699341 .0029907227 .1539917 .0029907227 .17399597 .0029907227 .22799683 .0029907227 .2669983 0Z"/>
<path id="font_1_108" d="M.7509918 .6496124V.6826172C.70599368 .6796112 .6609955 .6796112 .6339874 .6796112 .6049957 .6796112 .5609894 .6796112 .5159912 .6826172V.6496124C.61698916 .6496124 .61698916 .6016083 .61698916 .5756073V.23054505C.61698916 .0945282 .5149994 .011505127 .41299439 .011505127 .35899354 .011505127 .23699951 .042510988 .23699951 .22554016V.6016083C.23699951 .63861086 .23899842 .6496124 .31599427 .6496124H.33799745V.6826172L.19099427 .6796112 .04399109 .6826172V.6496124H.06599426C.14299011 .6496124 .14498902 .63861086 .14498902 .6016083V.22854615C.14498902 .08552551 .2689972-.021484375 .41099549-.021484375 .54499819-.021484375 .6499939 .09051514 .6499939 .22753906V.5756073C.6499939 .6016083 .6499939 .6496124 .7509918 .6496124Z"/>
<path id="font_1_98" d="M.3829956 .12924195C.3829956 .1772461 .35398866 .24725342 .23498535 .2692566 .22698975 .2712555 .17098999 .28126527 .16699219 .28126527 .13598633 .28826905 .08898926 .30926515 .08898926 .34927369 .08898926 .37927247 .11099243 .4212799 .20599365 .4212799 .31799317 .4212799 .32299806 .33926393 .32499696 .31126405 .32598878 .30326844 .33299256 .30026246 .33999635 .30026246 .35598756 .30026246 .35598756 .30726625 .35598756 .32626344V.4202881C.35598756 .4362793 .35598756 .44628907 .34298707 .44628907 .33799745 .44628907 .33499146 .44628907 .31900025 .4302826 .31698609 .4292755 .30799867 .4202881 .30499269 .4202881 .30499269 .4202881 .3019867 .4202881 .29599 .4242859 .27999879 .43528749 .25099183 .44628907 .20599365 .44628907 .06599426 .44628907 .034988405 .37026979 .034988405 .32226563 .034988405 .27226258 .07199097 .24325562 .07499695 .24024964 .114990238 .21025086 .13798523 .20625305 .20498657 .19424439 .2519989 .18525696 .32899476 .17124939 .32899476 .10324097 .32899476 .0642395 .30299378 .018234253 .21099854 .018234253 .10998535 .018234253 .08099365 .09623718 .067993167 .14924622 .06399536 .1622467 .06298828 .16725159 .050994874 .16725159 .034988405 .16725159 .034988405 .15924073 .034988405 .14024353V.016220093C.034988405 .00022888184 .034988405-.009765625 .04798889-.009765625 .053985597-.009765625 .054992677-.008773804 .07299805 .010223389 .07798767 .0152282719 .08898926 .02822876 .09399414 .033233644 .13899231-.0077667238 .18598938-.009765625 .21199036-.009765625 .33898927-.009765625 .3829956 .06323242 .3829956 .12924195Z"/>
</defs>
<use data-text="I" xlink:href="#font_1_65" transform="matrix(7.9703395,0,0,-7.970817,1.2175903,69.417179)"/>
<use data-text="n" xlink:href="#font_1_77" transform="matrix(7.9703395,0,0,-7.970817,4.270233,69.417179)"/>
<use data-text="t" xlink:href="#font_1_105" transform="matrix(7.9703395,0,0,-7.970817,8.733627,69.417179)"/>
<use data-text="e" xlink:href="#font_1_50" transform="matrix(7.9703395,0,0,-7.970817,12.025375,69.417179)"/>
<use data-text="g" xlink:href="#font_1_59" transform="matrix(7.9703395,0,0,-7.970817,15.787376,69.417179)"/>
<use data-text="e" xlink:href="#font_1_50" transform="matrix(7.9703395,0,0,-7.970817,20.019623,69.417179)"/>
<use data-text="r" xlink:href="#font_1_96" transform="matrix(7.9703395,0,0,-7.970817,23.781624,69.417179)"/>
<use data-text="S" xlink:href="#font_1_97" transform="matrix(7.9703395,0,0,-7.970817,44.44489,112.02501)"/>
<use data-text="i" xlink:href="#font_1_66" transform="matrix(7.9703395,0,0,-7.970817,49.147397,112.02501)"/>
<use data-text="g" xlink:href="#font_1_59" transform="matrix(7.9703395,0,0,-7.970817,51.498647,112.02501)"/>
<use data-text="n" xlink:href="#font_1_77" transform="matrix(7.9703395,0,0,-7.970817,55.7309,112.02501)"/>
<use data-text="e" xlink:href="#font_1_50" transform="matrix(7.9703395,0,0,-7.970817,60.4334,112.02501)"/>
<use data-text="d" xlink:href="#font_1_47" transform="matrix(7.9703395,0,0,-7.970817,64.195407,112.02501)"/>
<path transform="matrix(1.00003,0,0,-1.00009,14.149979,67.512)" stroke-width=".3985" stroke-linecap="butt" stroke-miterlimit="10" stroke-linejoin="miter" fill="none" stroke="#000000" d="M7.05695-7.05858 35.38057-35.37791"/>
<use data-text="I" xlink:href="#font_1_65" transform="matrix(7.9703395,0,0,-7.970817,91.67331,148.11125)"/>
<use data-text="n" xlink:href="#font_1_77" transform="matrix(7.9703395,0,0,-7.970817,94.72595,148.11125)"/>
<use data-text="t" xlink:href="#font_1_105" transform="matrix(7.9703395,0,0,-7.970817,99.18935,148.11125)"/>
<use data-text="8" xlink:href="#font_1_51" transform="matrix(7.9703395,0,0,-7.970817,102.481098,148.11125)"/>
<path transform="matrix(1.00003,0,0,-1.00009,14.149979,67.512)" stroke-width=".3985" stroke-linecap="butt" stroke-miterlimit="10" stroke-linejoin="miter" fill="none" stroke="#000000" d="M51.09125-49.66246 77.45287-71.6283"/>
<use data-text="I" xlink:href="#font_1_65" transform="matrix(7.9703395,0,0,-7.970817,89.556247,133.93598)"/>
<use data-text="n" xlink:href="#font_1_77" transform="matrix(7.9703395,0,0,-7.970817,92.60889,133.93598)"/>
<use data-text="t" xlink:href="#font_1_105" transform="matrix(7.9703395,0,0,-7.970817,97.07228,133.93598)"/>
<use data-text="1" xlink:href="#font_1_82" transform="matrix(7.9703395,0,0,-7.970817,100.36403,133.93598)"/>
<use data-text="6" xlink:href="#font_1_101" transform="matrix(7.9703395,0,0,-7.970817,104.59628,133.93598)"/>
<path transform="matrix(1.00003,0,0,-1.00009,14.149979,67.512)" stroke-width=".3985" stroke-linecap="butt" stroke-miterlimit="10" stroke-linejoin="miter" fill="none" stroke="#000000" d="M56.80225-49.66246 72.39026-57.4549"/>
<use data-text="I" xlink:href="#font_1_65" transform="matrix(7.9703395,0,0,-7.970817,89.556247,119.7617)"/>
<use data-text="n" xlink:href="#font_1_77" transform="matrix(7.9703395,0,0,-7.970817,92.60889,119.7617)"/>
<use data-text="t" xlink:href="#font_1_105" transform="matrix(7.9703395,0,0,-7.970817,97.07228,119.7617)"/>
<use data-text="3" xlink:href="#font_1_106" transform="matrix(7.9703395,0,0,-7.970817,100.36403,119.7617)"/>
<use data-text="2" xlink:href="#font_1_107" transform="matrix(7.9703395,0,0,-7.970817,104.59628,119.7617)"/>
<path transform="matrix(1.00003,0,0,-1.00009,14.149979,67.512)" stroke-width=".3985" stroke-linecap="butt" stroke-miterlimit="10" stroke-linejoin="miter" fill="none" stroke="#000000" d="M58.26634-45.14436 71.88463-47.41515"/>
<use data-text="I" xlink:href="#font_1_65" transform="matrix(7.9703395,0,0,-7.970817,89.556247,105.587429)"/>
<use data-text="n" xlink:href="#font_1_77" transform="matrix(7.9703395,0,0,-7.970817,92.60889,105.587429)"/>
<use data-text="t" xlink:href="#font_1_105" transform="matrix(7.9703395,0,0,-7.970817,97.07228,105.587429)"/>
<use data-text="6" xlink:href="#font_1_101" transform="matrix(7.9703395,0,0,-7.970817,100.36403,105.587429)"/>
<use data-text="4" xlink:href="#font_1_57" transform="matrix(7.9703395,0,0,-7.970817,104.59628,105.587429)"/>
<path transform="matrix(1.00003,0,0,-1.00009,14.149979,67.512)" stroke-width=".3985" stroke-linecap="butt" stroke-miterlimit="10" stroke-linejoin="miter" fill="none" stroke="#000000" d="M58.26634-39.896 71.88463-37.62512"/>
<use data-text="I" xlink:href="#font_1_65" transform="matrix(7.9703395,0,0,-7.970817,87.440189,91.412158)"/>
<use data-text="n" xlink:href="#font_1_77" transform="matrix(7.9703395,0,0,-7.970817,90.49283,91.412158)"/>
<use data-text="t" xlink:href="#font_1_105" transform="matrix(7.9703395,0,0,-7.970817,94.95622,91.412158)"/>
<use data-text="1" xlink:href="#font_1_82" transform="matrix(7.9703395,0,0,-7.970817,98.24797,91.412158)"/>
<use data-text="2" xlink:href="#font_1_107" transform="matrix(7.9703395,0,0,-7.970817,102.480228,91.412158)"/>
<use data-text="8" xlink:href="#font_1_51" transform="matrix(7.9703395,0,0,-7.970817,106.71247,91.412158)"/>
<path transform="matrix(1.00003,0,0,-1.00009,14.149979,67.512)" stroke-width=".3985" stroke-linecap="butt" stroke-miterlimit="10" stroke-linejoin="miter" fill="none" stroke="#000000" d="M56.80225-35.37791 72.39026-27.58537"/>
<use data-text="B" xlink:href="#font_1_34" transform="matrix(7.9703395,0,0,-7.970817,87.50018,76.50481)"/>
<use data-text="i" xlink:href="#font_1_66" transform="matrix(7.9703395,0,0,-7.970817,93.49388,76.50481)"/>
<use data-text="g" xlink:href="#font_1_59" transform="matrix(7.9703395,0,0,-7.970817,95.84513,76.50481)"/>
<use data-text="I" xlink:href="#font_1_65" transform="matrix(7.9703395,0,0,-7.970817,100.077388,76.50481)"/>
<use data-text="n" xlink:href="#font_1_77" transform="matrix(7.9703395,0,0,-7.970817,103.13003,76.50481)"/>
<use data-text="t" xlink:href="#font_1_105" transform="matrix(7.9703395,0,0,-7.970817,107.59342,76.50481)"/>
<path transform="matrix(1.00003,0,0,-1.00009,14.149979,67.512)" stroke-width=".3985" stroke-linecap="butt" stroke-miterlimit="10" stroke-linejoin="miter" fill="none" stroke="#000000" d="M51.09146-35.37791 76.57329-14.14522"/>
<use data-text="B" xlink:href="#font_1_34" transform="matrix(7.9703395,0,0,-7.970817,48.147,70.23825)"/>
<use data-text="o" xlink:href="#font_1_81" transform="matrix(7.9703395,0,0,-7.970817,54.140699,70.23825)"/>
<use data-text="o" xlink:href="#font_1_81" transform="matrix(7.9703395,0,0,-7.970817,58.60409,70.23825)"/>
<use data-text="l" xlink:href="#font_1_72" transform="matrix(7.9703395,0,0,-7.970817,62.836339,70.23825)"/>
<path transform="matrix(1.00003,0,0,-1.00009,14.149979,67.512)" stroke-width=".3985" stroke-linecap="butt" stroke-miterlimit="10" stroke-linejoin="miter" fill="none" stroke="#000000" d="M16.45148 0 30.47626 .00002"/>
<use data-text="U" xlink:href="#font_1_108" transform="matrix(7.9703395,0,0,-7.970817,39.602746,26.936352)"/>
<use data-text="n" xlink:href="#font_1_77" transform="matrix(7.9703395,0,0,-7.970817,45.947137,26.936352)"/>
<use data-text="s" xlink:href="#font_1_98" transform="matrix(7.9703395,0,0,-7.970817,50.649644,26.936352)"/>
<use data-text="i" xlink:href="#font_1_66" transform="matrix(7.9703395,0,0,-7.970817,53.989213,26.936352)"/>
<use data-text="g" xlink:href="#font_1_59" transform="matrix(7.9703395,0,0,-7.970817,56.34046,26.936352)"/>
<use data-text="n" xlink:href="#font_1_77" transform="matrix(7.9703395,0,0,-7.970817,60.572717,26.936352)"/>
<use data-text="e" xlink:href="#font_1_50" transform="matrix(7.9703395,0,0,-7.970817,65.275218,26.936352)"/>
<use data-text="d" xlink:href="#font_1_47" transform="matrix(7.9703395,0,0,-7.970817,69.037227,26.936352)"/>
<path transform="matrix(1.00003,0,0,-1.00009,14.149979,67.512)" stroke-width=".3985" stroke-linecap="butt" stroke-miterlimit="10" stroke-linejoin="miter" fill="none" stroke="#000000" d="M7.05716 7.05858 35.42041 35.41782"/>
<use data-text="U" xlink:href="#font_1_108" transform="matrix(7.9703395,0,0,-7.970817,88.50021,48.888326)"/>
<use data-text="I" xlink:href="#font_1_65" transform="matrix(7.9703395,0,0,-7.970817,94.844608,48.888326)"/>
<use data-text="n" xlink:href="#font_1_77" transform="matrix(7.9703395,0,0,-7.970817,97.89725,48.888326)"/>
<use data-text="t" xlink:href="#font_1_105" transform="matrix(7.9703395,0,0,-7.970817,102.36064,48.888326)"/>
<use data-text="8" xlink:href="#font_1_51" transform="matrix(7.9703395,0,0,-7.970817,105.65239,48.888326)"/>
<path transform="matrix(1.00003,0,0,-1.00009,14.149979,67.512)" stroke-width=".3985" stroke-linecap="butt" stroke-miterlimit="10" stroke-linejoin="miter" fill="none" stroke="#000000" d="M56.72256 35.41782 72.39026 27.58551"/>
<use data-text="U" xlink:href="#font_1_108" transform="matrix(7.9703395,0,0,-7.970817,86.38415,34.71405)"/>
<use data-text="I" xlink:href="#font_1_65" transform="matrix(7.9703395,0,0,-7.970817,92.72854,34.71405)"/>
<use data-text="n" xlink:href="#font_1_77" transform="matrix(7.9703395,0,0,-7.970817,95.78118,34.71405)"/>
<use data-text="t" xlink:href="#font_1_105" transform="matrix(7.9703395,0,0,-7.970817,100.244579,34.71405)"/>
<use data-text="1" xlink:href="#font_1_82" transform="matrix(7.9703395,0,0,-7.970817,103.53632,34.71405)"/>
<use data-text="6" xlink:href="#font_1_101" transform="matrix(7.9703395,0,0,-7.970817,107.76858,34.71405)"/>
<path transform="matrix(1.00003,0,0,-1.00009,14.149979,67.512)" stroke-width=".3985" stroke-linecap="butt" stroke-miterlimit="10" stroke-linejoin="miter" fill="none" stroke="#000000" d="M63.10826 39.08913 68.71248 38.15373"/>
<use data-text="U" xlink:href="#font_1_108" transform="matrix(7.9703395,0,0,-7.970817,86.38415,20.538773)"/>
<use data-text="I" xlink:href="#font_1_65" transform="matrix(7.9703395,0,0,-7.970817,92.72854,20.538773)"/>
<use data-text="n" xlink:href="#font_1_77" transform="matrix(7.9703395,0,0,-7.970817,95.78118,20.538773)"/>
<use data-text="t" xlink:href="#font_1_105" transform="matrix(7.9703395,0,0,-7.970817,100.244579,20.538773)"/>
<use data-text="3" xlink:href="#font_1_106" transform="matrix(7.9703395,0,0,-7.970817,103.53632,20.538773)"/>
<use data-text="2" xlink:href="#font_1_107" transform="matrix(7.9703395,0,0,-7.970817,107.76858,20.538773)"/>
<path transform="matrix(1.00003,0,0,-1.00009,14.149979,67.512)" stroke-width=".3985" stroke-linecap="butt" stroke-miterlimit="10" stroke-linejoin="miter" fill="none" stroke="#000000" d="M63.10826 45.95135 68.71248 46.88683"/>
<use data-text="U" xlink:href="#font_1_108" transform="matrix(7.9703395,0,0,-7.970817,86.38415,6.364498)"/>
<use data-text="I" xlink:href="#font_1_65" transform="matrix(7.9703395,0,0,-7.970817,92.72854,6.364498)"/>
<use data-text="n" xlink:href="#font_1_77" transform="matrix(7.9703395,0,0,-7.970817,95.78118,6.364498)"/>
<use data-text="t" xlink:href="#font_1_105" transform="matrix(7.9703395,0,0,-7.970817,100.244579,6.364498)"/>
<use data-text="6" xlink:href="#font_1_101" transform="matrix(7.9703395,0,0,-7.970817,103.53632,6.364498)"/>
<use data-text="4" xlink:href="#font_1_57" transform="matrix(7.9703395,0,0,-7.970817,107.76858,6.364498)"/>
<path transform="matrix(1.00003,0,0,-1.00009,14.149979,67.512)" stroke-width=".3985" stroke-linecap="butt" stroke-miterlimit="10" stroke-linejoin="miter" fill="none" stroke="#000000" d="M56.72256 49.62267 72.39026 57.45505"/>
</svg>
