<svg xmlns="http://www.w3.org/2000/svg" xmlns:xlink="http://www.w3.org/1999/xlink" xmlns:inkscape="http://www.inkscape.org/namespaces/inkscape" version="1.1" width="295" height="155" viewBox="0 0 295 155">
<defs>
<path id="font_1_1" d="M.33399964 .30233766C.33999635 .32835389 .36299134 .42037965 .43299867 .42037965 .43798829 .42037965 .46199037 .42037965 .48298646 .40734864 .45498658 .402359 .43499757 .37734986 .43499757 .35334779 .43499757 .33735658 .44599916 .31835938 .47299195 .31835938 .49499513 .31835938 .5269928 .3363495 .5269928 .37635804 .5269928 .42837525 .46798707 .4423828 .43399049 .4423828 .37599183 .4423828 .34098817 .38935853 .32899476 .36634828 .3039856 .43237306 .25 .4423828 .22099304 .4423828 .116989139 .4423828 .05999756 .3133545 .05999756 .28834535 .05999756 .27833558 .069992069 .27833558 .07199097 .27833558 .07998657 .27833558 .08299255 .28033448 .084991458 .28933717 .11898804 .39535523 .18499756 .42037965 .21899414 .42037965 .23799134 .42037965 .272995 .4113617 .272995 .35334779 .272995 .32235719 .2559967 .25532533 .21899414 .11528015 .20298767 .053268434 .16799927 .011245728 .12399292 .011245728 .117996219 .011245728 .09498596 .011245728 .07398987 .024276734 .09899902 .029266358 .12098694 .05027771 .12098694 .07827759 .12098694 .105270389 .09899902 .11328125 .083999637 .11328125 .053985597 .11328125 .0289917 .08728027 .0289917 .055267335 .0289917 .009246826 .07899475-.0107421879 .12298584-.0107421879 .18899536-.0107421879 .22499085 .059280397 .22799683 .0652771 .23999024 .028274537 .27598573-.0107421879 .33599855-.0107421879 .43899537-.0107421879 .49598695 .118270877 .49598695 .14328003 .49598695 .1532898 .4869995 .1532898 .48399354 .1532898 .47499085 .1532898 .47299195 .14929199 .47099305 .14228821 .43798829 .03527832 .36999513 .011245728 .33799745 .011245728 .29899598 .011245728 .2829895 .043273927 .2829895 .07727051 .2829895 .09927368 .2889862 .121276859 .2999878 .16529846L.33399964 .30233766Z"/>
<path id="font_2_64" d="M.27598573 .18710327V.24511719H.010986328V.18710327H.27598573Z"/>
<path id="font_2_82" d="M.4189911 0V.0309906H.3869934C.29699708 .0309906 .2939911 .041992189 .2939911 .07902527V.64012148C.2939911 .6640167 .2939911 .6660156 .2709961 .6660156 .20899964 .60227969 .12098694 .60227969 .08898926 .60227969V.57128909C.10899353 .57128909 .16799927 .57128909 .21998596 .5972748V.07902527C.21998596 .042999269 .21699524 .0309906 .1269989 .0309906H.09498596V0C.12998963 .0029907227 .21699524 .0029907227 .25698854 .0029907227 .29699708 .0029907227 .38398744 .0029907227 .4189911 0Z"/>
<path id="font_2_107" d="M.44898988 .17396546H.42399598C.4189911 .14398194 .4119873 .099990848 .4019928 .084991458 .394989 .07699585 .32899476 .07699585 .30699159 .07699585H.1269989L.23298645 .17996216C.3889923 .31803895 .44898988 .37210084 .44898988 .47216798 .44898988 .5860901 .35899354 .6660156 .23699951 .6660156 .12399292 .6660156 .049987794 .57411196 .049987794 .48516847 .049987794 .4291687 .099990848 .4291687 .102996829 .4291687 .11999512 .4291687 .15499878 .44117738 .15499878 .48217774 .15499878 .5081787 .13699341 .5341797 .101989749 .5341797 .09399414 .5341797 .09199524 .5341797 .08898926 .5331726 .11199951 .59806826 .1659851 .63500979 .22399903 .63500979 .31498719 .63500979 .35798646 .5541382 .35798646 .47216798 .35798646 .39196778 .30799867 .31297303 .25299073 .25097657L.06098938 .036987306C.049987794 .025985718 .049987794 .023986817 .049987794 0H.42099L.44898988 .17396546Z"/>
<path id="font_1_2" d="M.48599244 .38136292C.48999024 .39537049 .48999024 .39736939 .48999024 .40437318 .48999024 .42237855 .47599793 .43138124 .46099855 .43138124 .45098878 .43138124 .43499757 .42536927 .42599488 .41036988 .42399598 .405365 .41600038 .37435914 .4119873 .35635377 .40499879 .33035279 .397995 .30334474 .3919983 .27633668L.34700013 .09628296C.34298707 .08126831 .2999878 .011245728 .23399353 .011245728 .18299866 .011245728 .17199707 .055267335 .17199707 .0922699 .17199707 .1382904 .18899536 .20030213 .22299195 .28833009 .23899842 .3293457 .24299622 .3403473 .24299622 .36035157 .24299622 .405365 .21099854 .4423828 .16099549 .4423828 .06599426 .4423828 .0289917 .29733277 .0289917 .28833009 .0289917 .27833558 .038986207 .27833558 .040985109 .27833558 .050994874 .27833558 .051986696 .28033448 .056991579 .29634095 .083999637 .3903656 .12399292 .42037965 .1579895 .42037965 .1659851 .42037965 .18299866 .42037965 .18299866 .3883667 .18299866 .36335755 .17298889 .3373413 .1659851 .31834413 .12599182 .21231079 .10798645 .1552887 .10798645 .10827637 .10798645 .019256592 .17098999-.0107421879 .22999573-.0107421879 .2689972-.0107421879 .30299378 .0062561037 .33099366 .03425598 .31799317-.017745972 .30599977-.06674194 .2659912-.11973572 .23999024-.15385437 .20199585-.18309021 .1559906-.18309021 .14199829-.18309021 .09700012-.18005371 .07998657-.14074707 .09599304-.14074707 .10899353-.14074707 .12298584-.1287384 .1329956-.11973572 .14299011-.10673523 .14299011-.08773804 .14299011-.056747438 .115997318-.052734376 .10598755-.052734376 .08299255-.052734376 .049987794-.068740848 .049987794-.11773682 .049987794-.16796875 .09399414-.20507813 .1559906-.20507813 .25898744-.20507813 .3619995-.11373901 .3899994-.00074768069L.48599244 .38136292Z"/>
</defs>
<path transform="matrix(1.00009,0,0,-1,107.405048,117.966)" stroke-width=".79701" stroke-linecap="butt" stroke-miterlimit="10" stroke-linejoin="miter" fill="none" stroke="#ff0000" d="M0 70.867 35.43347 55.20372V0H0Z"/>
<path transform="matrix(1.00009,0,0,-1,107.405048,117.966)" d="M0 70.867 35.43347 55.20372V0H0Z" fill="#ffbfbf"/>
<path transform="matrix(1.00009,0,0,-1,107.405048,117.966)" stroke-width=".79701" stroke-linecap="butt" stroke-miterlimit="10" stroke-linejoin="miter" fill="none" stroke="#ff0000" d="M35.43347 0V55.20372L70.867 26.07013V0Z"/>
<path transform="matrix(1.00009,0,0,-1,107.405048,117.966)" d="M35.43347 0V55.20372L70.867 26.07013V0Z" fill="#ffbfbf"/>
<path transform="matrix(1.00009,0,0,-1,107.405048,117.966)" stroke-width=".79701" stroke-linecap="butt" stroke-miterlimit="10" stroke-linejoin="miter" fill="none" stroke="#ff0000" d="M70.867 0V26.07013L106.3005 7.47101V0Z"/>
<path transform="matrix(1.00009,0,0,-1,107.405048,117.966)" d="M70.867 0V26.07013L106.3005 7.47101V0Z" fill="#ffbfbf"/>
<path transform="matrix(1.00009,0,0,-1,107.405048,117.966)" stroke-width=".79701" stroke-linecap="butt" stroke-miterlimit="10" stroke-linejoin="miter" fill="none" stroke="#ff0000" d="M106.3005 0V7.47101L141.73404 1.2965V0Z"/>
<path transform="matrix(1.00009,0,0,-1,107.405048,117.966)" d="M106.3005 0V7.47101L141.73404 1.2965V0Z" fill="#ffbfbf"/>
<path transform="matrix(1.00009,0,0,-1,107.405048,117.966)" stroke-width=".79701" stroke-linecap="butt" stroke-miterlimit="10" stroke-linejoin="miter" fill="none" stroke="#000000" d="M-34.87314 55.63536-34.0072 56.30234-32.5809 57.38046-31.15457 58.42935-29.7283 59.44257-28.302 60.43526-26.87572 61.38467-25.44943 62.30708-24.02315 63.18512-22.59682 64.02966-21.17053 64.82985-19.74425 65.58896-18.31795 66.29723-16.89168 66.96333-15.46538 67.5808-14.03905 68.15498-12.61276 68.67184-11.18648 69.14006-9.7602 69.55103-8.3339 69.90569-6.90762 70.21063-5.4813 70.45822-4.055 70.64963-2.62872 70.7848-1.20242 70.86267 .2238 70.867 1.65009 70.84106 3.07642 70.74911 4.5027 70.59341 5.92899 70.38797 7.35527 70.1252 8.78157 69.79973 10.20784 69.4234 11.63417 68.99843 13.06047 68.51614 14.48676 67.97765 15.91304 67.39586 17.33932 66.76544 18.76563 66.0777 20.19194 65.35428 21.61823 64.58221 23.04453 63.76689 24.4708 62.91585 25.8971 62.02376 27.32338 61.08731 28.7497 60.12381 30.176 59.1236 31.60228 58.09633 33.02856 57.03983 34.45485 55.96281 35.88115 54.8501 37.30746 53.72226 38.73375 52.57387 40.16005 51.41144 41.58633 50.22842 43.01262 49.03682 44.4389 47.83974 45.86523 46.62758 47.29152 45.4078 48.7178 44.18913 50.1441 42.96286 51.57037 41.73558 52.99667 40.51686 54.423 39.2982 55.84927 38.08604 57.27557 36.88033 58.70186 35.68976 60.12814 34.5057 61.55443 33.3292 62.98076 32.1743 64.40704 31.0324 65.83333 29.90565 67.25963 28.79295 68.68591 27.70076 70.1122 26.63023 71.53853 25.58134 72.96481 24.55408 74.3911 23.54732 75.81738 22.56224 77.24368 21.60522 78.66995 20.66878 80.09628 19.75507 81.52258 18.86833 82.94885 18.01083 84.37515 17.17496 85.80144 16.35963 87.22775 15.58 88.65405 14.82089 90.08034 14.08447 91.50662 13.3751 92.9329 12.69496 94.3592 12.03535 95.78552 11.40492 97.2118 10.79503 98.6381 10.20679 100.06439 9.64664 101.49068 9.11464 102.91696 8.59773 104.34329 8.109 105.76958 7.63316 107.19586 7.18657 108.62216 6.76163 110.04843 6.3507 111.47473 5.96791 112.90106 5.59918 114.32733 5.24448 115.75363 4.91145 117.17992 4.59999 118.6062 4.30157 120.03249 4.01825 121.45882 3.75655 122.8851 3.50134 124.31139 3.26024 125.73769 3.04073 127.16397 2.82767 128.59026 2.62872 130.01659 2.44489 131.44287 2.26755 132.86916 2.10428 134.29544 1.94853 135.72174 1.8069 137.14801 1.6717 138.57434 1.54413 140.00064 1.42412 141.42691 1.31812 142.85321 1.21109 144.2795 1.11916 145.70578 1.02727 147.13211 .94939 148.5584 .87152 149.98468 .80019 151.41097 .73637 152.83727 .6758 154.26355 .61958 155.68987 .56766 157.11617 .51901 158.54245 .47467 159.96874 .43358 161.39502 .39574 162.82132 .36115 164.24764 .32869 165.67392 .2995 167.10022 .27249 168.52649 .24759 169.95279 .2249 171.37908 .20433 172.80539 .18488 174.23169 .16759 175.65798 .15135 176.37699 .14421"/>
<path transform="matrix(-.7922513,.6102,.6102549,.79218,72.528789,62.330644)" stroke-width=".6376" stroke-linecap="round" stroke-linejoin="round" fill="none" stroke="#000000" d="M-1.55415 2.0722C-1.42464 1.29512 0 .1295 .38852 0 0-.1295-1.42464-1.29512-1.55415-2.0722"/>
<path transform="matrix(1,.0098,.009800882,-.99991,283.79789,117.82177)" stroke-width=".6376" stroke-linecap="round" stroke-linejoin="round" fill="none" stroke="#000000" d="M-1.55415 2.0722C-1.42464 1.29512 0 .1295 .38852 0 0-.1295-1.42464-1.29512-1.55415-2.0722"/>
<path transform="matrix(1.00009,0,0,-1,107.405048,117.966)" stroke-width=".3985" stroke-linecap="butt" stroke-miterlimit="10" stroke-linejoin="miter" fill="none" stroke="#000000" d="M-106.3005 0H176.70925"/>
<path transform="matrix(1.00009,0,0,-1,284.1302,117.966)" stroke-width=".31879" stroke-linecap="round" stroke-linejoin="round" fill="none" stroke="#000000" d="M-1.19551 1.59401C-1.09587 .99626 0 .09961 .29886 0 0-.09961-1.09587-.99626-1.19551-1.59401"/>
<use data-text="x" xlink:href="#font_1_1" transform="matrix(9.963496,0,0,-9.9626,288.1083,114.446)"/>
<path transform="matrix(1.00009,0,0,-1,107.405048,117.966)" stroke-width=".3985" stroke-linecap="butt" stroke-miterlimit="10" stroke-linejoin="miter" fill="none" stroke="#000000" d="M-70.867 1.4176V-1.4176"/>
<use data-text="-" xlink:href="#font_2_64" transform="matrix(9.963496,0,0,-9.9626,32.382295,129.539)"/>
<use data-text="1" xlink:href="#font_2_82" transform="matrix(9.963496,0,0,-9.9626,35.70015,129.539)"/>
<path transform="matrix(1.00009,0,0,-1,107.405048,117.966)" stroke-width=".3985" stroke-linecap="butt" stroke-miterlimit="10" stroke-linejoin="miter" fill="none" stroke="#000000" d="M70.867 1.4176V-1.4176"/>
<use data-text="1" xlink:href="#font_2_82" transform="matrix(9.963496,0,0,-9.9626,175.7872,129.539)"/>
<path transform="matrix(1.00009,0,0,-1,107.405048,117.966)" stroke-width=".3985" stroke-linecap="butt" stroke-miterlimit="10" stroke-linejoin="miter" fill="none" stroke="#000000" d="M141.73404 1.4176V-1.4176"/>
<use data-text="2" xlink:href="#font_2_107" transform="matrix(9.963496,0,0,-9.9626,246.66057,129.539)"/>
<path transform="matrix(1.00009,0,0,-1,107.405048,117.966)" stroke-width=".3985" stroke-linecap="butt" stroke-miterlimit="10" stroke-linejoin="miter" fill="none" stroke="#000000" d="M0-35.43347V105.84222"/>
<path transform="matrix(0,-1,-1.00009,-0,107.405048,12.123787)" stroke-width=".31879" stroke-linecap="round" stroke-linejoin="round" fill="none" stroke="#000000" d="M-1.19551 1.59401C-1.09587 .99626 0 .09961 .29886 0 0-.09961-1.09587-.99626-1.19551-1.59401"/>
<use data-text="y" xlink:href="#font_1_2" transform="matrix(9.963496,0,0,-9.9626,110.92536,6.208)"/>
<path transform="matrix(1.00009,0,0,-1,107.405048,117.966)" stroke-width=".3985" stroke-linecap="butt" stroke-miterlimit="10" stroke-linejoin="miter" fill="none" stroke="#000000" d="M1.4176 70.867H-1.4176"/>
<use data-text="1" xlink:href="#font_2_82" transform="matrix(9.963496,0,0,-9.9626,97.48515,43.579004)"/>
</svg>
