<svg xmlns="http://www.w3.org/2000/svg" xmlns:xlink="http://www.w3.org/1999/xlink" xmlns:inkscape="http://www.inkscape.org/namespaces/inkscape" version="1.1" width="144" height="117" viewBox="0 0 144 117">
<path transform="matrix(1.00006,0,0,-1,1.0959854,115.185)" stroke-width=".3985" stroke-linecap="butt" stroke-miterlimit="10" stroke-linejoin="miter" fill="none" stroke="#000000" d="M0 0H141.73404"/>
<path transform="matrix(1.00006,0,0,-1,1.0959854,115.185)" stroke-width=".3985" stroke-linecap="butt" stroke-miterlimit="10" stroke-linejoin="miter" fill="none" stroke="#000000" d="M0 28.3468H141.73404"/>
<path transform="matrix(1.00006,0,0,-1,1.0959854,115.185)" stroke-width=".3985" stroke-linecap="butt" stroke-miterlimit="10" stroke-linejoin="miter" fill="none" stroke="#000000" d="M0 56.69362H141.73404"/>
<path transform="matrix(1.00006,0,0,-1,1.0959854,115.185)" stroke-width=".3985" stroke-linecap="butt" stroke-miterlimit="10" stroke-linejoin="miter" fill="none" stroke="#000000" d="M0 85.04042H141.73404"/>
<path transform="matrix(1.00006,0,0,-1,1.0959854,115.185)" stroke-width=".3985" stroke-linecap="butt" stroke-miterlimit="10" stroke-linejoin="miter" fill="none" stroke="#000000" d="M0 113.38724H141.73404"/>
<path transform="matrix(1.00006,0,0,-1,1.0959854,115.185)" stroke-width="1.19553" stroke-linecap="butt" stroke-miterlimit="10" stroke-linejoin="miter" fill="none" stroke="#000000" d="M26.74771 36.64937 44.1193 51.22589"/>
<path transform="matrix(1.00006,0,0,-1,1.0959854,115.185)" stroke-width="1.19553" stroke-linecap="butt" stroke-miterlimit="10" stroke-linejoin="miter" fill="none" stroke="#000000" d="M54.7247 48.36185 58.6625 70.69466"/>
<path transform="matrix(1.00006,0,0,-1,1.0959854,115.185)" stroke-width="1.19553" stroke-linecap="butt" stroke-miterlimit="10" stroke-linejoin="miter" fill="none" stroke="#000000" d="M94.8599 25.51215 75.22093 36.85071"/>
<path transform="matrix(1.00006,0,0,-1,1.0959854,115.185)" stroke-width="1.19553" stroke-linecap="butt" stroke-miterlimit="10" stroke-linejoin="miter" fill="none" stroke="#000000" d="M116.95544 86.08392 95.6456 78.32764"/>
</svg>
